<?xml version="1.0" encoding="UTF-8" standalone="no"?>
<!DOCTYPE svg PUBLIC "-//W3C//DTD SVG 1.1//EN" "http://www.w3.org/Graphics/SVG/1.1/DTD/svg11.dtd">
<svg xmlns="http://www.w3.org/2000/svg" version="1.1" viewBox="0.00 0.00 512.00 512.00">
<g stroke-width="2.00" fill="none" stroke-linecap="butt">
<path stroke="#978867" vector-effect="non-scaling-stroke" d="
  M 178.71 89.70
  L 189.38 92.97
  A 0.92 0.91 -59.3 0 0 190.30 92.73
  C 202.95 79.55 224.98 90.87 221.07 108.82
  C 219.37 116.60 212.73 122.46 204.65 122.90
  Q 198.99 123.21 195.10 120.90
  Q 183.14 113.78 186.17 99.73
  A 0.64 0.64 0.0 0 0 185.80 99.02
  Q 180.36 96.71 174.49 95.99"
/>
<path stroke="#957d61" vector-effect="non-scaling-stroke" d="
  M 174.49 95.99
  C 149.59 93.48 128.34 111.29 123.02 135.02
  Q 121.42 142.18 122.56 149.27
  A 3.24 3.23 67.3 0 1 121.28 152.40
  C 101.69 166.67 94.21 192.36 106.23 214.42"
/>
<path stroke="#978867" vector-effect="non-scaling-stroke" d="
  M 106.23 214.42
  Q 109.31 220.44 114.30 225.38
  A 0.35 0.35 0.0 0 0 114.78 225.38
  C 124.66 215.63 138.03 208.67 152.24 209.99
  A 3.65 3.56 -53.5 0 0 153.98 209.71
  Q 166.97 204.16 173.22 191.11
  A 0.58 0.57 -63.0 0 0 172.98 190.35
  C 155.94 181.18 163.06 155.31 182.60 156.46
  C 196.14 157.26 203.48 172.27 196.79 183.59
  Q 191.78 192.09 180.73 192.48
  A 0.91 0.91 0.0 0 0 179.93 193.02
  Q 174.76 205.06 163.75 212.34
  A 0.39 0.39 0.0 0 0 163.82 213.03
  Q 175.69 218.02 183.45 228.48
  A 3.32 3.32 0.0 0 1 182.76 233.13
  L 182.63 233.23
  A 3.42 3.41 -36.8 0 1 177.86 232.55
  C 169.52 221.48 154.60 213.89 140.94 217.71
  Q 127.60 221.45 117.80 232.30
  Q 116.74 233.48 115.34 236.45"
/>
<path stroke="#957d61" vector-effect="non-scaling-stroke" d="
  M 115.34 236.45
  Q 106.60 256.96 117.08 277.09"
/>
<path stroke="#978867" vector-effect="non-scaling-stroke" d="
  M 117.08 277.09
  Q 125.26 292.41 141.22 299.52
  A 4.43 4.40 58.3 0 0 142.81 299.90
  Q 161.37 300.83 175.91 289.26
  A 0.68 0.68 0.0 0 0 175.97 288.26
  C 171.46 283.55 169.78 276.71 171.72 270.53
  C 176.41 255.59 196.10 253.21 204.33 266.50
  C 207.48 271.60 207.83 278.74 205.06 283.78
  Q 198.11 296.41 182.80 292.93
  A 0.86 0.85 30.8 0 0 182.04 293.12
  Q 166.58 306.68 145.83 306.96
  A 0.39 0.39 0.0 0 0 145.45 307.42
  C 148.94 328.50 167.18 344.57 187.13 350.17
  Q 193.51 351.97 198.57 352.19
  Q 199.55 352.24 206.42 352.30
  Q 212.63 352.36 214.24 352.00
  C 231.21 348.17 243.39 333.82 243.41 316.24
  Q 243.44 295.55 243.42 68.49
  A 1.36 0.96 -61.8 0 0 243.38 68.17
  L 242.49 64.99"
/>
<path stroke="#957d61" vector-effect="non-scaling-stroke" d="
  M 242.49 64.99
  Q 240.23 58.58 235.16 55.29
  C 224.16 48.15 208.23 49.25 196.68 54.38
  C 181.91 60.95 171.55 73.80 165.45 88.36
  A 0.36 0.36 0.0 0 0 165.80 88.86
  Q 172.43 88.54 178.71 89.70"
/>
<path stroke="#fac95c" vector-effect="non-scaling-stroke" d="
  M 242.49 64.99
  C 238.90 64.24 235.09 62.90 231.80 62.50
  C 210.23 59.84 189.88 71.57 178.71 89.70"
/>
<path stroke="#fac95c" vector-effect="non-scaling-stroke" d="
  M 117.08 277.09
  Q 117.41 272.11 117.69 267.24
  Q 118.35 256.07 123.66 246.45
  A 0.94 0.93 -52.1 0 0 123.53 245.37
  L 115.34 236.45"
/>
<path stroke="#fac95c" vector-effect="non-scaling-stroke" d="
  M 106.23 214.42
  Q 106.35 203.52 106.96 200.01
  Q 110.72 178.58 127.92 165.48
  A 1.32 1.31 -21.4 0 0 128.43 164.33
  C 126.23 137.76 143.18 115.59 168.52 108.71
  A 1.08 1.07 4.5 0 0 169.25 108.09
  L 174.49 95.99"
/>
<path stroke="#978867" vector-effect="non-scaling-stroke" d="
  M 270.87 62.19
  Q 268.53 66.37 268.53 70.50
  Q 268.58 305.12 268.56 310.62
  Q 268.50 321.36 269.95 326.27
  C 273.77 339.21 285.38 350.73 299.45 352.09
  Q 304.87 352.61 312.06 352.20
  Q 331.22 351.11 346.19 339.40"
/>
<path stroke="#957d61" vector-effect="non-scaling-stroke" d="
  M 346.19 339.40
  Q 361.07 328.32 365.81 310.73"
/>
<path stroke="#978867" vector-effect="non-scaling-stroke" d="
  M 365.81 310.73
  L 366.48 307.50
  A 0.46 0.45 6.3 0 0 366.04 306.96
  Q 345.39 306.66 330.01 293.18
  A 1.24 1.23 61.8 0 0 329.04 292.88
  Q 328.38 292.95 327.61 293.16
  C 309.22 298.10 297.11 274.68 311.33 262.16
  C 322.52 252.32 339.43 259.82 340.97 274.09
  Q 341.81 281.87 335.88 288.49
  A 0.53 0.52 41.2 0 0 335.93 289.24
  C 344.60 296.78 358.58 300.71 370.19 299.71
  A 2.59 2.46 25.9 0 0 371.26 299.37
  L 379.75 294.39"
/>
<path stroke="#957d61" vector-effect="non-scaling-stroke" d="
  M 379.75 294.39
  C 391.29 286.75 398.60 273.28 400.31 259.98
  C 401.53 250.50 399.22 235.69 391.14 229.25"
/>
<path stroke="#978867" vector-effect="non-scaling-stroke" d="
  M 391.14 229.25
  Q 384.93 223.34 376.81 219.68
  C 360.98 212.57 344.59 219.22 334.11 232.51
  A 3.54 3.53 -54.4 0 1 329.43 233.29
  L 329.33 233.23
  A 3.21 3.21 0.0 0 1 328.46 228.66
  C 333.73 221.35 340.17 216.64 348.17 212.99
  A 0.40 0.40 0.0 0 0 348.22 212.30
  Q 337.29 205.11 332.01 192.95
  A 0.88 0.87 78.1 0 0 331.21 192.42
  C 319.81 192.36 311.15 183.02 312.92 171.58
  Q 314.06 164.21 320.11 159.89
  C 334.21 149.82 352.82 163.13 347.91 179.61
  Q 345.89 186.37 339.07 190.40
  A 0.66 0.66 0.0 0 0 338.81 191.25
  Q 345.07 204.13 358.07 209.76
  A 3.24 3.21 -36.0 0 0 359.70 210.01
  C 372.08 208.75 383.96 213.99 393.28 221.86"
/>
<path stroke="#957d61" vector-effect="non-scaling-stroke" d="
  M 393.28 221.86
  L 397.31 225.20
  A 0.51 0.50 40.7 0 0 398.00 225.15
  C 418.44 203.63 415.32 169.52 390.77 152.43
  A 3.18 3.16 21.2 0 1 389.44 149.44
  C 389.80 146.49 390.10 144.43 389.91 141.84
  C 387.68 112.16 359.03 88.19 328.93 98.00"
/>
<path stroke="#978867" vector-effect="non-scaling-stroke" d="
  M 328.93 98.00
  Q 327.28 98.36 326.17 99.15
  A 0.82 0.81 -24.3 0 0 325.84 100.01
  Q 327.89 109.03 323.08 115.49
  C 314.40 127.13 295.98 124.80 291.41 110.54
  C 285.47 92.03 308.29 79.04 321.66 92.68
  A 0.82 0.81 -32.4 0 0 322.53 92.87
  L 325.35 91.80"
/>
<path stroke="#957d61" vector-effect="non-scaling-stroke" d="
  M 325.35 91.80
  Q 335.53 88.33 346.25 88.80
  A 0.35 0.35 0.0 0 0 346.59 88.32
  C 338.99 70.23 325.67 56.24 306.30 51.48
  C 294.10 48.49 277.83 50.17 270.87 62.19"
/>
<path stroke="#fac95c" vector-effect="non-scaling-stroke" d="
  M 325.35 91.80
  C 312.46 72.00 295.26 60.96 270.87 62.19"
/>
<path stroke="#fac95c" vector-effect="non-scaling-stroke" d="
  M 328.93 98.00
  L 333.03 108.03
  A 1.26 1.22 -3.0 0 0 333.88 108.77
  C 358.83 115.22 376.63 138.41 373.82 164.44
  A 0.98 0.96 -68.5 0 0 374.19 165.32
  C 390.11 177.73 397.85 195.00 395.28 215.21
  Q 394.91 218.09 393.28 221.86"
/>
<path stroke="#fac95c" vector-effect="non-scaling-stroke" d="
  M 391.14 229.25
  Q 386.00 238.59 378.56 245.70
  A 0.43 0.41 -37.0 0 0 378.48 246.21
  Q 388.05 263.58 383.44 282.63
  C 382.64 285.93 380.77 290.35 379.75 294.39"
/>
<path stroke="#fac95c" vector-effect="non-scaling-stroke" d="
  M 365.81 310.73
  L 351.98 318.59
  A 1.04 1.01 80.4 0 0 351.48 319.32
  Q 349.81 329.15 346.19 339.40"
/>
<path stroke="#8a91aa" vector-effect="non-scaling-stroke" d="
  M 214.58 104.97
  A 11.09 11.09 0.0 0 0 203.49 93.88
  A 11.09 11.09 0.0 0 0 192.40 104.97
  A 11.09 11.09 0.0 0 0 203.49 116.06
  A 11.09 11.09 0.0 0 0 214.58 104.97"
/>
<path stroke="#8a91aa" vector-effect="non-scaling-stroke" d="
  M 319.58 104.97
  A 11.09 11.09 0.0 0 0 308.49 93.88
  A 11.09 11.09 0.0 0 0 297.40 104.97
  A 11.09 11.09 0.0 0 0 308.49 116.06
  A 11.09 11.09 0.0 0 0 319.58 104.97"
/>
<path stroke="#8a91aa" vector-effect="non-scaling-stroke" d="
  M 192.42 174.41
  A 11.09 11.09 0.0 0 0 181.33 163.32
  A 11.09 11.09 0.0 0 0 170.24 174.41
  A 11.09 11.09 0.0 0 0 181.33 185.50
  A 11.09 11.09 0.0 0 0 192.42 174.41"
/>
<path stroke="#8a91aa" vector-effect="non-scaling-stroke" d="
  M 341.76 174.41
  A 11.09 11.09 0.0 0 0 330.67 163.32
  A 11.09 11.09 0.0 0 0 319.58 174.41
  A 11.09 11.09 0.0 0 0 330.67 185.50
  A 11.09 11.09 0.0 0 0 341.76 174.41"
/>
<path stroke="#8a91aa" vector-effect="non-scaling-stroke" d="
  M 200.01 275.78
  A 11.09 11.09 0.0 0 0 188.92 264.69
  A 11.09 11.09 0.0 0 0 177.83 275.78
  A 11.09 11.09 0.0 0 0 188.92 286.87
  A 11.09 11.09 0.0 0 0 200.01 275.78"
/>
<path stroke="#8a91aa" vector-effect="non-scaling-stroke" d="
  M 334.15 275.78
  A 11.09 11.09 0.0 0 0 323.06 264.69
  A 11.09 11.09 0.0 0 0 311.97 275.78
  A 11.09 11.09 0.0 0 0 323.06 286.87
  A 11.09 11.09 0.0 0 0 334.15 275.78"
/>
<path stroke="#626a8b" vector-effect="non-scaling-stroke" d="
  M 323.49 359.69
  A 0.27 0.27 0.0 0 0 323.22 359.42
  L 188.80 359.42
  A 0.27 0.27 0.0 0 0 188.53 359.69
  L 188.53 384.91
  A 0.27 0.27 0.0 0 0 188.80 385.18
  L 323.22 385.18
  A 0.27 0.27 0.0 0 0 323.49 384.91
  L 323.49 359.69"
/>
<path stroke="#626a8b" vector-effect="non-scaling-stroke" d="
  M 323.49 392.50
  A 0.39 0.39 0.0 0 0 323.10 392.11
  L 188.92 392.11
  A 0.39 0.39 0.0 0 0 188.53 392.50
  L 188.53 417.84
  A 0.39 0.39 0.0 0 0 188.92 418.23
  L 323.10 418.23
  A 0.39 0.39 0.0 0 0 323.49 417.84
  L 323.49 392.50"
/>
<path stroke="#626a8b" vector-effect="non-scaling-stroke" d="
  M 256.01 451.00
  Q 296.32 451.00 297.75 450.98
  C 312.18 450.76 322.87 439.91 323.50 425.62
  A 0.43 0.43 0.0 0 0 323.06 425.17
  Q 319.80 425.17 256.01 425.17
  Q 192.22 425.17 188.95 425.18
  A 0.43 0.43 0.0 0 0 188.51 425.62
  C 189.15 439.91 199.84 450.76 214.27 450.98
  Q 215.70 451.00 256.01 451.00"
/>
<path stroke="#626a8b" vector-effect="non-scaling-stroke" d="
  M 256.03 484.86
  C 271.35 484.86 283.42 473.37 284.98 458.30
  A 0.33 0.33 0.0 0 0 284.66 457.94
  Q 282.47 457.93 256.03 457.93
  Q 229.58 457.93 227.40 457.93
  A 0.33 0.33 0.0 0 0 227.07 458.30
  C 228.64 473.36 240.70 484.86 256.03 484.86"
/>
<path stroke="#efdda6" vector-effect="non-scaling-stroke" d="
  M 229.17 185.76
  A 4.08 4.08 0.0 0 0 225.09 181.68
  L 224.41 181.68
  A 4.08 4.08 0.0 0 0 220.33 185.76
  L 220.33 188.70
  A 4.08 4.08 0.0 0 0 224.41 192.78
  L 225.09 192.78
  A 4.08 4.08 0.0 0 0 229.17 188.70
  L 229.17 185.76"
/>
<path stroke="#efdda6" vector-effect="non-scaling-stroke" d="
  M 229.2587 202.7522
  A 4.35 4.35 0.0 0 0 224.9011 198.4098
  L 224.6611 198.4103
  A 4.35 4.35 0.0 0 0 220.3187 202.7678
  L 220.4013 250.1078
  A 4.35 4.35 0.0 0 0 224.7589 254.4502
  L 224.9989 254.4497
  A 4.35 4.35 0.0 0 0 229.3413 250.0922
  L 229.2587 202.7522"
/>
</g>
<rect fill="#323c6b" x="-3.46" y="-19.83" transform="translate(143.41,38.84) rotate(-24.4)" width="6.92" height="39.66" rx="0.42"/>
<rect fill="#323c6b" x="-3.46" y="-19.83" transform="translate(368.54,38.85) rotate(24.3)" width="6.92" height="39.66" rx="0.39"/>
<path fill="#323c6b" d="
  M 218.65 22.55
  Q 231.92 23.13 245.19 29.26
  C 249.60 31.30 246.65 37.47 242.55 35.62
  Q 230.04 29.96 218.35 29.45
  Q 206.66 28.95 193.71 33.51
  C 189.47 35.00 187.06 28.60 191.64 26.94
  Q 205.38 21.98 218.65 22.55
  Z"
/>
<rect fill="#323c6b" x="-5.13" y="-3.43" transform="translate(175.26,38.81) rotate(-35.7)" width="10.26" height="6.86" rx="3.25"/>
<path fill="#323c6b" d="
  M 256.02 104.65
  Q 259.90 104.65 261.01 104.58
  A 0.64 0.64 0.0 0 0 261.61 103.96
  Q 261.81 98.61 261.61 74.29
  Q 261.56 67.13 262.85 63.37
  Q 266.08 53.99 274.66 48.64
  C 281.60 44.32 292.14 42.51 300.46 43.52
  C 325.22 46.52 342.46 62.26 352.31 84.22
  Q 353.97 87.91 354.87 89.93
  A 1.12 1.08 -2.8 0 0 355.54 90.52
  C 381.03 98.28 398.12 120.87 396.75 147.77
  A 1.03 1.01 -69.4 0 0 397.12 148.60
  C 415.21 163.22 422.81 185.99 415.99 208.25
  Q 412.30 220.29 402.16 230.85
  A 0.59 0.58 -34.9 0 0 402.04 231.51
  Q 411.30 251.39 405.13 270.52
  Q 397.41 294.49 374.54 305.44
  A 1.28 1.27 81.7 0 0 373.82 306.41
  C 370.37 329.63 352.97 347.65 331.21 355.39
  A 1.22 1.22 0.0 0 0 330.40 356.55
  Q 330.45 396.64 330.36 427.24
  Q 330.35 429.90 329.23 433.92
  C 325.76 446.25 316.05 454.79 303.66 457.37
  C 300.21 458.09 295.19 457.94 292.49 457.95
  A 0.56 0.56 0.0 0 0 291.93 458.45
  Q 289.85 476.78 275.19 486.15
  Q 266.35 491.81 256.00 491.81
  Q 245.64 491.81 236.81 486.15
  Q 222.15 476.78 220.07 458.45
  A 0.56 0.56 0.0 0 0 219.51 457.95
  C 216.81 457.94 211.79 458.08 208.34 457.36
  C 195.95 454.78 186.24 446.24 182.78 433.91
  Q 181.66 429.89 181.65 427.23
  Q 181.56 396.63 181.62 356.54
  A 1.22 1.22 0.0 0 0 180.81 355.38
  C 159.05 347.64 141.65 329.62 138.20 306.40
  A 1.28 1.27 -81.7 0 0 137.48 305.43
  Q 114.61 294.47 106.90 270.50
  Q 100.73 251.37 109.99 231.49
  A 0.59 0.58 34.9 0 0 109.87 230.83
  Q 99.73 220.27 96.04 208.23
  C 89.23 185.97 96.83 163.20 114.92 148.58
  A 1.03 1.01 69.5 0 0 115.29 147.75
  C 113.92 120.85 131.02 98.26 156.51 90.51
  A 1.12 1.08 2.8 0 0 157.18 89.92
  Q 158.08 87.90 159.74 84.21
  C 169.59 62.25 186.83 46.51 211.59 43.51
  C 219.91 42.51 230.45 44.32 237.39 48.64
  Q 245.97 53.99 249.20 63.37
  Q 250.49 67.13 250.44 74.29
  Q 250.24 98.61 250.44 103.96
  A 0.64 0.64 0.0 0 0 251.04 104.58
  Q 252.14 104.65 256.02 104.65
  Z
  M 178.71 89.70
  L 189.38 92.97
  A 0.92 0.91 -59.3 0 0 190.30 92.73
  C 202.95 79.55 224.98 90.87 221.07 108.82
  C 219.37 116.60 212.73 122.46 204.65 122.90
  Q 198.99 123.21 195.10 120.90
  Q 183.14 113.78 186.17 99.73
  A 0.64 0.64 0.0 0 0 185.80 99.02
  Q 180.36 96.71 174.49 95.99
  C 149.59 93.48 128.34 111.29 123.02 135.02
  Q 121.42 142.18 122.56 149.27
  A 3.24 3.23 67.3 0 1 121.28 152.40
  C 101.69 166.67 94.21 192.36 106.23 214.42
  Q 109.31 220.44 114.30 225.38
  A 0.35 0.35 0.0 0 0 114.78 225.38
  C 124.66 215.63 138.03 208.67 152.24 209.99
  A 3.65 3.56 -53.5 0 0 153.98 209.71
  Q 166.97 204.16 173.22 191.11
  A 0.58 0.57 -63.0 0 0 172.98 190.35
  C 155.94 181.18 163.06 155.31 182.60 156.46
  C 196.14 157.26 203.48 172.27 196.79 183.59
  Q 191.78 192.09 180.73 192.48
  A 0.91 0.91 0.0 0 0 179.93 193.02
  Q 174.76 205.06 163.75 212.34
  A 0.39 0.39 0.0 0 0 163.82 213.03
  Q 175.69 218.02 183.45 228.48
  A 3.32 3.32 0.0 0 1 182.76 233.13
  L 182.63 233.23
  A 3.42 3.41 -36.8 0 1 177.86 232.55
  C 169.52 221.48 154.60 213.89 140.94 217.71
  Q 127.60 221.45 117.80 232.30
  Q 116.74 233.48 115.34 236.45
  Q 106.60 256.96 117.08 277.09
  Q 125.26 292.41 141.22 299.52
  A 4.43 4.40 58.3 0 0 142.81 299.90
  Q 161.37 300.83 175.91 289.26
  A 0.68 0.68 0.0 0 0 175.97 288.26
  C 171.46 283.55 169.78 276.71 171.72 270.53
  C 176.41 255.59 196.10 253.21 204.33 266.50
  C 207.48 271.60 207.83 278.74 205.06 283.78
  Q 198.11 296.41 182.80 292.93
  A 0.86 0.85 30.8 0 0 182.04 293.12
  Q 166.58 306.68 145.83 306.96
  A 0.39 0.39 0.0 0 0 145.45 307.42
  C 148.94 328.50 167.18 344.57 187.13 350.17
  Q 193.51 351.97 198.57 352.19
  Q 199.55 352.24 206.42 352.30
  Q 212.63 352.36 214.24 352.00
  C 231.21 348.17 243.39 333.82 243.41 316.24
  Q 243.44 295.55 243.42 68.49
  A 1.36 0.96 -61.8 0 0 243.38 68.17
  L 242.49 64.99
  Q 240.23 58.58 235.16 55.29
  C 224.16 48.15 208.23 49.25 196.68 54.38
  C 181.91 60.95 171.55 73.80 165.45 88.36
  A 0.36 0.36 0.0 0 0 165.80 88.86
  Q 172.43 88.54 178.71 89.70
  Z
  M 270.87 62.19
  Q 268.53 66.37 268.53 70.50
  Q 268.58 305.12 268.56 310.62
  Q 268.50 321.36 269.95 326.27
  C 273.77 339.21 285.38 350.73 299.45 352.09
  Q 304.87 352.61 312.06 352.20
  Q 331.22 351.11 346.19 339.40
  Q 361.07 328.32 365.81 310.73
  L 366.48 307.50
  A 0.46 0.45 6.3 0 0 366.04 306.96
  Q 345.39 306.66 330.01 293.18
  A 1.24 1.23 61.8 0 0 329.04 292.88
  Q 328.38 292.95 327.61 293.16
  C 309.22 298.10 297.11 274.68 311.33 262.16
  C 322.52 252.32 339.43 259.82 340.97 274.09
  Q 341.81 281.87 335.88 288.49
  A 0.53 0.52 41.2 0 0 335.93 289.24
  C 344.60 296.78 358.58 300.71 370.19 299.71
  A 2.59 2.46 25.9 0 0 371.26 299.37
  L 379.75 294.39
  C 391.29 286.75 398.60 273.28 400.31 259.98
  C 401.53 250.50 399.22 235.69 391.14 229.25
  Q 384.93 223.34 376.81 219.68
  C 360.98 212.57 344.59 219.22 334.11 232.51
  A 3.54 3.53 -54.4 0 1 329.43 233.29
  L 329.33 233.23
  A 3.21 3.21 0.0 0 1 328.46 228.66
  C 333.73 221.35 340.17 216.64 348.17 212.99
  A 0.40 0.40 0.0 0 0 348.22 212.30
  Q 337.29 205.11 332.01 192.95
  A 0.88 0.87 78.1 0 0 331.21 192.42
  C 319.81 192.36 311.15 183.02 312.92 171.58
  Q 314.06 164.21 320.11 159.89
  C 334.21 149.82 352.82 163.13 347.91 179.61
  Q 345.89 186.37 339.07 190.40
  A 0.66 0.66 0.0 0 0 338.81 191.25
  Q 345.07 204.13 358.07 209.76
  A 3.24 3.21 -36.0 0 0 359.70 210.01
  C 372.08 208.75 383.96 213.99 393.28 221.86
  L 397.31 225.20
  A 0.51 0.50 40.7 0 0 398.00 225.15
  C 418.44 203.63 415.32 169.52 390.77 152.43
  A 3.18 3.16 21.2 0 1 389.44 149.44
  C 389.80 146.49 390.10 144.43 389.91 141.84
  C 387.68 112.16 359.03 88.19 328.93 98.00
  Q 327.28 98.36 326.17 99.15
  A 0.82 0.81 -24.3 0 0 325.84 100.01
  Q 327.89 109.03 323.08 115.49
  C 314.40 127.13 295.98 124.80 291.41 110.54
  C 285.47 92.03 308.29 79.04 321.66 92.68
  A 0.82 0.81 -32.4 0 0 322.53 92.87
  L 325.35 91.80
  Q 335.53 88.33 346.25 88.80
  A 0.35 0.35 0.0 0 0 346.59 88.32
  C 338.99 70.23 325.67 56.24 306.30 51.48
  C 294.10 48.49 277.83 50.17 270.87 62.19
  Z
  M 214.58 104.97
  A 11.09 11.09 0.0 0 0 203.49 93.88
  A 11.09 11.09 0.0 0 0 192.40 104.97
  A 11.09 11.09 0.0 0 0 203.49 116.06
  A 11.09 11.09 0.0 0 0 214.58 104.97
  Z
  M 319.58 104.97
  A 11.09 11.09 0.0 0 0 308.49 93.88
  A 11.09 11.09 0.0 0 0 297.40 104.97
  A 11.09 11.09 0.0 0 0 308.49 116.06
  A 11.09 11.09 0.0 0 0 319.58 104.97
  Z
  M 261.64 111.93
  A 0.35 0.35 0.0 0 0 261.29 111.58
  L 250.71 111.58
  A 0.35 0.35 0.0 0 0 250.36 111.93
  L 250.36 308.75
  A 0.35 0.35 0.0 0 0 250.71 309.10
  L 261.29 309.10
  A 0.35 0.35 0.0 0 0 261.64 308.75
  L 261.64 111.93
  Z
  M 192.42 174.41
  A 11.09 11.09 0.0 0 0 181.33 163.32
  A 11.09 11.09 0.0 0 0 170.24 174.41
  A 11.09 11.09 0.0 0 0 181.33 185.50
  A 11.09 11.09 0.0 0 0 192.42 174.41
  Z
  M 341.76 174.41
  A 11.09 11.09 0.0 0 0 330.67 163.32
  A 11.09 11.09 0.0 0 0 319.58 174.41
  A 11.09 11.09 0.0 0 0 330.67 185.50
  A 11.09 11.09 0.0 0 0 341.76 174.41
  Z
  M 200.01 275.78
  A 11.09 11.09 0.0 0 0 188.92 264.69
  A 11.09 11.09 0.0 0 0 177.83 275.78
  A 11.09 11.09 0.0 0 0 188.92 286.87
  A 11.09 11.09 0.0 0 0 200.01 275.78
  Z
  M 334.15 275.78
  A 11.09 11.09 0.0 0 0 323.06 264.69
  A 11.09 11.09 0.0 0 0 311.97 275.78
  A 11.09 11.09 0.0 0 0 323.06 286.87
  A 11.09 11.09 0.0 0 0 334.15 275.78
  Z
  M 256.02 352.40
  Q 273.90 352.39 280.57 352.32
  A 0.12 0.12 0.0 0 0 280.64 352.09
  Q 262.59 339.28 261.59 316.61
  A 0.54 0.53 -89.8 0 0 261.08 316.10
  Q 259.18 316.01 256.01 316.01
  Q 252.84 316.02 250.94 316.10
  A 0.54 0.53 89.8 0 0 250.43 316.61
  Q 249.44 339.28 231.40 352.10
  A 0.12 0.12 0.0 0 0 231.47 352.33
  Q 238.14 352.40 256.02 352.40
  Z
  M 323.49 359.69
  A 0.27 0.27 0.0 0 0 323.22 359.42
  L 188.80 359.42
  A 0.27 0.27 0.0 0 0 188.53 359.69
  L 188.53 384.91
  A 0.27 0.27 0.0 0 0 188.80 385.18
  L 323.22 385.18
  A 0.27 0.27 0.0 0 0 323.49 384.91
  L 323.49 359.69
  Z
  M 323.49 392.50
  A 0.39 0.39 0.0 0 0 323.10 392.11
  L 188.92 392.11
  A 0.39 0.39 0.0 0 0 188.53 392.50
  L 188.53 417.84
  A 0.39 0.39 0.0 0 0 188.92 418.23
  L 323.10 418.23
  A 0.39 0.39 0.0 0 0 323.49 417.84
  L 323.49 392.50
  Z
  M 256.01 451.00
  Q 296.32 451.00 297.75 450.98
  C 312.18 450.76 322.87 439.91 323.50 425.62
  A 0.43 0.43 0.0 0 0 323.06 425.17
  Q 319.80 425.17 256.01 425.17
  Q 192.22 425.17 188.95 425.18
  A 0.43 0.43 0.0 0 0 188.51 425.62
  C 189.15 439.91 199.84 450.76 214.27 450.98
  Q 215.70 451.00 256.01 451.00
  Z
  M 256.03 484.86
  C 271.35 484.86 283.42 473.37 284.98 458.30
  A 0.33 0.33 0.0 0 0 284.66 457.94
  Q 282.47 457.93 256.03 457.93
  Q 229.58 457.93 227.40 457.93
  A 0.33 0.33 0.0 0 0 227.07 458.30
  C 228.64 473.36 240.70 484.86 256.03 484.86
  Z"
/>
<path fill="#f7be56" d="
  M 242.49 64.99
  C 238.90 64.24 235.09 62.90 231.80 62.50
  C 210.23 59.84 189.88 71.57 178.71 89.70
  Q 172.43 88.54 165.80 88.86
  A 0.36 0.36 0.0 0 1 165.45 88.36
  C 171.55 73.80 181.91 60.95 196.68 54.38
  C 208.23 49.25 224.16 48.15 235.16 55.29
  Q 240.23 58.58 242.49 64.99
  Z"
/>
<path fill="#f7be56" d="
  M 325.35 91.80
  C 312.46 72.00 295.26 60.96 270.87 62.19
  C 277.83 50.17 294.10 48.49 306.30 51.48
  C 325.67 56.24 338.99 70.23 346.59 88.32
  A 0.35 0.35 0.0 0 1 346.25 88.80
  Q 335.53 88.33 325.35 91.80
  Z"
/>
<rect fill="#323c6b" x="-19.83" y="-3.46" transform="translate(97.19,74.54) rotate(39.0)" width="39.66" height="6.92" rx="0.41"/>
<rect fill="#323c6b" x="-19.83" y="-3.46" transform="translate(414.62,74.49) rotate(-39.0)" width="39.66" height="6.92" rx="0.40"/>
<path fill="#fcd462" d="
  M 242.49 64.99
  L 243.38 68.17
  A 1.36 0.96 -61.8 0 1 243.42 68.49
  Q 243.44 295.55 243.41 316.24
  C 243.39 333.82 231.21 348.17 214.24 352.00
  Q 212.63 352.36 206.42 352.30
  Q 199.55 352.24 198.57 352.19
  Q 193.51 351.97 187.13 350.17
  C 167.18 344.57 148.94 328.50 145.45 307.42
  A 0.39 0.39 0.0 0 1 145.83 306.96
  Q 166.58 306.68 182.04 293.12
  A 0.86 0.85 30.8 0 1 182.80 292.93
  Q 198.11 296.41 205.06 283.78
  C 207.83 278.74 207.48 271.60 204.33 266.50
  C 196.10 253.21 176.41 255.59 171.72 270.53
  C 169.78 276.71 171.46 283.55 175.97 288.26
  A 0.68 0.68 0.0 0 1 175.91 289.26
  Q 161.37 300.83 142.81 299.90
  A 4.43 4.40 58.3 0 1 141.22 299.52
  Q 125.26 292.41 117.08 277.09
  Q 117.41 272.11 117.69 267.24
  Q 118.35 256.07 123.66 246.45
  A 0.94 0.93 -52.1 0 0 123.53 245.37
  L 115.34 236.45
  Q 116.74 233.48 117.80 232.30
  Q 127.60 221.45 140.94 217.71
  C 154.60 213.89 169.52 221.48 177.86 232.55
  A 3.42 3.41 -36.8 0 0 182.63 233.23
  L 182.76 233.13
  A 3.32 3.32 0.0 0 0 183.45 228.48
  Q 175.69 218.02 163.82 213.03
  A 0.39 0.39 0.0 0 1 163.75 212.34
  Q 174.76 205.06 179.93 193.02
  A 0.91 0.91 0.0 0 1 180.73 192.48
  Q 191.78 192.09 196.79 183.59
  C 203.48 172.27 196.14 157.26 182.60 156.46
  C 163.06 155.31 155.94 181.18 172.98 190.35
  A 0.58 0.57 -63.0 0 1 173.22 191.11
  Q 166.97 204.16 153.98 209.71
  A 3.65 3.56 -53.5 0 1 152.24 209.99
  C 138.03 208.67 124.66 215.63 114.78 225.38
  A 0.35 0.35 0.0 0 1 114.30 225.38
  Q 109.31 220.44 106.23 214.42
  Q 106.35 203.52 106.96 200.01
  Q 110.72 178.58 127.92 165.48
  A 1.32 1.31 -21.4 0 0 128.43 164.33
  C 126.23 137.76 143.18 115.59 168.52 108.71
  A 1.08 1.07 4.5 0 0 169.25 108.09
  L 174.49 95.99
  Q 180.36 96.71 185.80 99.02
  A 0.64 0.64 0.0 0 1 186.17 99.73
  Q 183.14 113.78 195.10 120.90
  Q 198.99 123.21 204.65 122.90
  C 212.73 122.46 219.37 116.60 221.07 108.82
  C 224.98 90.87 202.95 79.55 190.30 92.73
  A 0.92 0.91 -59.3 0 1 189.38 92.97
  L 178.71 89.70
  C 189.88 71.57 210.23 59.84 231.80 62.50
  C 235.09 62.90 238.90 64.24 242.49 64.99
  Z
  M 229.17 185.76
  A 4.08 4.08 0.0 0 0 225.09 181.68
  L 224.41 181.68
  A 4.08 4.08 0.0 0 0 220.33 185.76
  L 220.33 188.70
  A 4.08 4.08 0.0 0 0 224.41 192.78
  L 225.09 192.78
  A 4.08 4.08 0.0 0 0 229.17 188.70
  L 229.17 185.76
  Z
  M 229.2587 202.7522
  A 4.35 4.35 0.0 0 0 224.9011 198.4098
  L 224.6611 198.4103
  A 4.35 4.35 0.0 0 0 220.3187 202.7678
  L 220.4013 250.1078
  A 4.35 4.35 0.0 0 0 224.7589 254.4502
  L 224.9989 254.4497
  A 4.35 4.35 0.0 0 0 229.3413 250.0922
  L 229.2587 202.7522
  Z"
/>
<path fill="#fcd462" d="
  M 325.35 91.80
  L 322.53 92.87
  A 0.82 0.81 -32.4 0 1 321.66 92.68
  C 308.29 79.04 285.47 92.03 291.41 110.54
  C 295.98 124.80 314.40 127.13 323.08 115.49
  Q 327.89 109.03 325.84 100.01
  A 0.82 0.81 -24.3 0 1 326.17 99.15
  Q 327.28 98.36 328.93 98.00
  L 333.03 108.03
  A 1.26 1.22 -3.0 0 0 333.88 108.77
  C 358.83 115.22 376.63 138.41 373.82 164.44
  A 0.98 0.96 -68.5 0 0 374.19 165.32
  C 390.11 177.73 397.85 195.00 395.28 215.21
  Q 394.91 218.09 393.28 221.86
  C 383.96 213.99 372.08 208.75 359.70 210.01
  A 3.24 3.21 -36.0 0 1 358.07 209.76
  Q 345.07 204.13 338.81 191.25
  A 0.66 0.66 0.0 0 1 339.07 190.40
  Q 345.89 186.37 347.91 179.61
  C 352.82 163.13 334.21 149.82 320.11 159.89
  Q 314.06 164.21 312.92 171.58
  C 311.15 183.02 319.81 192.36 331.21 192.42
  A 0.88 0.87 78.1 0 1 332.01 192.95
  Q 337.29 205.11 348.22 212.30
  A 0.40 0.40 0.0 0 1 348.17 212.99
  C 340.17 216.64 333.73 221.35 328.46 228.66
  A 3.21 3.21 0.0 0 0 329.33 233.23
  L 329.43 233.29
  A 3.54 3.53 -54.4 0 0 334.11 232.51
  C 344.59 219.22 360.98 212.57 376.81 219.68
  Q 384.93 223.34 391.14 229.25
  Q 386.00 238.59 378.56 245.70
  A 0.43 0.41 -37.0 0 0 378.48 246.21
  Q 388.05 263.58 383.44 282.63
  C 382.64 285.93 380.77 290.35 379.75 294.39
  L 371.26 299.37
  A 2.59 2.46 25.9 0 1 370.19 299.71
  C 358.58 300.71 344.60 296.78 335.93 289.24
  A 0.53 0.52 41.2 0 1 335.88 288.49
  Q 341.81 281.87 340.97 274.09
  C 339.43 259.82 322.52 252.32 311.33 262.16
  C 297.11 274.68 309.22 298.10 327.61 293.16
  Q 328.38 292.95 329.04 292.88
  A 1.24 1.23 61.8 0 1 330.01 293.18
  Q 345.39 306.66 366.04 306.96
  A 0.46 0.45 6.3 0 1 366.48 307.50
  L 365.81 310.73
  L 351.98 318.59
  A 1.04 1.01 80.4 0 0 351.48 319.32
  Q 349.81 329.15 346.19 339.40
  Q 331.22 351.11 312.06 352.20
  Q 304.87 352.61 299.45 352.09
  C 285.38 350.73 273.77 339.21 269.95 326.27
  Q 268.50 321.36 268.56 310.62
  Q 268.58 305.12 268.53 70.50
  Q 268.53 66.37 270.87 62.19
  C 295.26 60.96 312.46 72.00 325.35 91.80
  Z"
/>
<circle fill="#e1e6e9" cx="203.49" cy="104.97" r="11.09"/>
<circle fill="#e1e6e9" cx="308.49" cy="104.97" r="11.09"/>
<path fill="#f7be56" d="
  M 174.49 95.99
  L 169.25 108.09
  A 1.08 1.07 4.5 0 1 168.52 108.71
  C 143.18 115.59 126.23 137.76 128.43 164.33
  A 1.32 1.31 -21.4 0 1 127.92 165.48
  Q 110.72 178.58 106.96 200.01
  Q 106.35 203.52 106.23 214.42
  C 94.21 192.36 101.69 166.67 121.28 152.40
  A 3.24 3.23 67.3 0 0 122.56 149.27
  Q 121.42 142.18 123.02 135.02
  C 128.34 111.29 149.59 93.48 174.49 95.99
  Z"
/>
<path fill="#f7be56" d="
  M 393.28 221.86
  Q 394.91 218.09 395.28 215.21
  C 397.85 195.00 390.11 177.73 374.19 165.32
  A 0.98 0.96 -68.5 0 1 373.82 164.44
  C 376.63 138.41 358.83 115.22 333.88 108.77
  A 1.26 1.22 -3.0 0 1 333.03 108.03
  L 328.93 98.00
  C 359.03 88.19 387.68 112.16 389.91 141.84
  C 390.10 144.43 389.80 146.49 389.44 149.44
  A 3.18 3.16 21.2 0 0 390.77 152.43
  C 415.32 169.52 418.44 203.63 398.00 225.15
  A 0.51 0.50 40.7 0 1 397.31 225.20
  L 393.28 221.86
  Z"
/>
<rect fill="#323c6b" x="-19.83" y="-3.46" transform="translate(71.91,127.10) rotate(12.3)" width="39.66" height="6.92" rx="0.41"/>
<rect fill="#323c6b" x="-19.83" y="-3.46" transform="translate(440.05,127.18) rotate(-12.3)" width="39.66" height="6.92" rx="0.39"/>
<circle fill="#e1e6e9" cx="181.33" cy="174.41" r="11.09"/>
<circle fill="#e1e6e9" cx="330.67" cy="174.41" r="11.09"/>
<rect fill="#e1e6e9" x="220.33" y="181.68" width="8.84" height="11.10" rx="4.08"/>
<rect fill="#e1e6e9" x="-4.47" y="-28.02" transform="translate(224.83,226.43) rotate(-0.1)" width="8.94" height="56.04" rx="4.35"/>
<path fill="#f7be56" d="
  M 391.14 229.25
  C 399.22 235.69 401.53 250.50 400.31 259.98
  C 398.60 273.28 391.29 286.75 379.75 294.39
  C 380.77 290.35 382.64 285.93 383.44 282.63
  Q 388.05 263.58 378.48 246.21
  A 0.43 0.41 -37.0 0 1 378.56 245.70
  Q 386.00 238.59 391.14 229.25
  Z"
/>
<path fill="#f7be56" d="
  M 115.34 236.45
  L 123.53 245.37
  A 0.94 0.93 -52.1 0 1 123.66 246.45
  Q 118.35 256.07 117.69 267.24
  Q 117.41 272.11 117.08 277.09
  Q 106.60 256.96 115.34 236.45
  Z"
/>
<circle fill="#e1e6e9" cx="188.92" cy="275.78" r="11.09"/>
<circle fill="#e1e6e9" cx="323.06" cy="275.78" r="11.09"/>
<path fill="#f7be56" d="
  M 365.81 310.73
  Q 361.07 328.32 346.19 339.40
  Q 349.81 329.15 351.48 319.32
  A 1.04 1.01 80.4 0 1 351.98 318.59
  L 365.81 310.73
  Z"
/>
<rect fill="#9297ab" x="188.53" y="359.42" width="134.96" height="25.76" rx="0.27"/>
<rect fill="#9297ab" x="188.53" y="392.11" width="134.96" height="26.12" rx="0.39"/>
<rect fill="#323c6b" x="344.27" y="404.83" width="6.84" height="9.76" rx="3.18"/>
<path fill="#323c6b" d="
  M 338.10 460.06
  Q 326.27 473.79 307.74 477.68
  C 304.30 478.41 301.98 474.78 304.01 472.20
  Q 304.62 471.43 307.28 470.78
  Q 323.04 466.95 332.87 455.55
  Q 342.70 444.15 344.16 427.99
  Q 344.40 425.27 345.08 424.55
  C 347.33 422.17 351.26 423.93 351.05 427.43
  Q 349.93 446.33 338.10 460.06
  Z"
/>
<path fill="#9297ab" d="
  M 256.01 425.17
  Q 319.80 425.17 323.06 425.17
  A 0.43 0.43 0.0 0 1 323.50 425.62
  C 322.87 439.91 312.18 450.76 297.75 450.98
  Q 296.32 451.00 256.01 451.00
  Q 215.70 451.00 214.27 450.98
  C 199.84 450.76 189.15 439.91 188.51 425.62
  A 0.43 0.43 0.0 0 1 188.95 425.18
  Q 192.22 425.17 256.01 425.17
  Z"
/>
<path fill="#9297ab" d="
  M 256.03 457.93
  Q 282.47 457.93 284.66 457.94
  A 0.33 0.33 0.0 0 1 284.98 458.30
  C 283.42 473.37 271.35 484.86 256.03 484.86
  C 240.70 484.86 228.64 473.36 227.07 458.30
  A 0.33 0.33 0.0 0 1 227.40 457.93
  Q 229.58 457.93 256.03 457.93
  Z"
/>
</svg>
