<svg version="1.2" xmlns="http://www.w3.org/2000/svg" viewBox="0 0 155 20" width="204" height="26">
	<title>freepik-logo-blog-blue-svg</title>
	<style>
		.s0 { fill: #404492 } 
		.s1 { fill: #ffffff } 
		.s2 { fill: #336aea } 
	</style>
	<g id="Layer_1-2">
		<g id="Freepik_Blog_-_Lightmode_-_Wide">
			<path id="Layer" class="s0" d="m114 2c0-1.1 0.9-2 2-2h36.8c1.1 0 2 0.9 2 2v16c0 1.1-0.9 2-2 2h-36.8c-1.1 0-2-0.9-2-2z"/>
			<path id="Layer" fill-rule="evenodd" class="s1" d="m140.9 11.1c0 2.6-1.6 4.1-4 4.1-2.6 0-4.1-1.5-4.1-4.1 0-2.6 1.6-4.1 4.1-4.1 2.4 0 4 1.5 4 4.1zm-2.3 0c0-1.4-0.5-2.2-1.8-2.2-1.2 0-1.7 0.8-1.7 2.2 0 1.4 0.5 2.2 1.7 2.2 1.3 0 1.8-0.8 1.8-2.2z"/>
			<path id="Layer" fill-rule="evenodd" class="s1" d="m128.2 12.3c0 1.6-1 2.7-3.6 2.7h-4.7v-9.9h4.3c2.5 0 3.6 0.8 3.6 2.5 0 1.3-0.7 2.1-2.1 2.4v0.1c1.8 0.2 2.5 0.8 2.5 2.2zm-6-3h1.9c0.9 0 1.4-0.3 1.4-1.2 0-0.8-0.3-1.2-1.3-1.2h-2zm3.7 2.8c0-0.8-0.4-1.1-1.5-1.1h-2.2v2.3h2.3c0.9 0 1.4-0.5 1.4-1.2z"/>
			<path id="Layer" class="s1" d="m129.4 4.4h2.2v10.6h-2.2z"/>
			<path id="Layer" fill-rule="evenodd" class="s1" d="m149.4 15.4c0 1.7-1 2.5-4.2 2.5-3 0-3.8-0.6-3.8-1.6 0-0.7 0.8-1.2 1.8-1.4v-0.1c-0.8-0.1-1.2-0.5-1.2-1.1 0-0.4 0.4-0.8 1-1.1l0.6-0.3c-1.2-0.3-1.8-1.2-1.8-2.4 0-1.7 1.3-2.7 3.5-2.7h4v1.7h-0.9q-0.6 0-1.5-0.1v0.2c1 0.2 1.8 0.5 1.8 1.4 0 1.3-1.3 2.2-3.4 2.2q-0.8 0-1.3-0.2l-0.2 0.2q-0.1 0.3-0.1 0.5c0 0.3 0.2 0.4 0.7 0.4 0.8 0 1.7-0.1 2.5-0.1 1.7 0 2.5 0.8 2.5 2zm-5.6-5.4c0 0.6 0.3 1.1 1.5 1.1 1.1 0 1.5-0.5 1.5-1.1 0-0.6-0.5-1.1-1.5-1.1-1.1 0-1.5 0.5-1.5 1.1zm3.9 5.5c0-0.4-0.3-0.6-0.9-0.6h-2.6c-0.7 0-1.1 0.3-1.1 0.7 0 0.5 0.4 0.7 2.3 0.7 1.9 0 2.3-0.2 2.3-0.8z"/>
			<path id="Logo" fill-rule="evenodd" class="s2" d="m33.8 17.4c0.2 0.2 0 0.6-0.3 0.6h-6.3l-0.2-0.1-4.4-5c-0.3-0.3-0.7-0.5-1.2-0.5h-3c-0.2 0-0.4 0.2-0.4 0.4v4.8c0 0.2-0.2 0.4-0.4 0.4h-4.7c-0.2 0-0.4-0.2-0.4-0.4v-15.2c0-0.2 0.2-0.4 0.4-0.4h14.9c3.2 0 5.9 1.6 5.9 5 0 3-2.1 4.7-4.8 5h-0.3c0 0-0.1 0.1 0 0.1zm-5.4-10.1c0-0.9-0.8-1.5-2-1.5h-8.1c-0.2 0-0.3 0.2-0.3 0.4v2.3c0 0.2 0.1 0.3 0.3 0.3h8.3c1.1 0 1.8-0.5 1.8-1.5zm60.7 5.2c0 0.2-0.2 0.4-0.4 0.4h-4.8c-0.2 0-0.3-0.2-0.3-0.4v-10.1c0-0.2 0.1-0.4 0.3-0.4h4.8c0.2 0 0.4 0.2 0.4 0.4zm0 2.9v2.2c0 0.2-0.2 0.4-0.4 0.4h-4.8c-0.2 0-0.3-0.2-0.3-0.4v-2.2c0-0.2 0.1-0.4 0.3-0.4h4.8c0.2 0 0.4 0.2 0.4 0.4zm14.4 2.5q-0.3 0-0.4-0.2l-4.1-5.4q0 0 0 0h-0.3q-0.1 0-0.1 0l-2 2.2q-0.1 0.1-0.1 0.3v2.8c0 0.2-0.2 0.3-0.3 0.3h-4.7c-0.1 0-0.3-0.1-0.3-0.3v-15.3c0-0.2 0.2-0.3 0.4-0.3h4.5c0.2 0 0.4 0.1 0.4 0.3v5.9q0 0.1 0.1 0.1h0.2q0 0 0 0l5.6-6.2q0.2-0.1 0.4-0.1h5c0.2 0 0.3 0.3 0.2 0.5l-5.8 6.3c-0.2 0.2-0.2 0.4 0 0.6l6.1 8.1c0.1 0.2 0 0.4-0.2 0.4zm-62.8-11.9v1.7c0 0.2 0.2 0.4 0.4 0.4h4.7c0.2 0 0.3 0.1 0.3 0.3v2.9c0 0.2-0.1 0.4-0.3 0.4h-4.7c-0.2 0-0.4 0.1-0.4 0.4v1.9c0 0.2 0.2 0.3 0.4 0.3h4.7c0.2 0 0.3 0.2 0.3 0.4v2.9c0 0.2-0.1 0.4-0.3 0.4h-9.7c-0.2 0-0.3-0.2-0.3-0.4v-15.3c0-0.2 0.1-0.3 0.3-0.3h9.7c0.2 0 0.3 0.1 0.3 0.3v3c0 0.2-0.1 0.3-0.3 0.3h-4.7c-0.2 0-0.4 0.2-0.4 0.4zm12.5 0v1.7c0 0.2 0.2 0.4 0.4 0.4h4.7c0.2 0 0.3 0.1 0.3 0.3v2.9c0 0.2-0.1 0.4-0.3 0.4h-4.7c-0.2 0-0.4 0.1-0.4 0.4v1.9c0 0.2 0.2 0.3 0.4 0.3h4.7c0.2 0 0.3 0.2 0.3 0.4v2.9c0 0.2-0.1 0.4-0.3 0.4h-9.6c-0.2 0-0.4-0.2-0.4-0.4v-15.3c0-0.2 0.2-0.3 0.4-0.3h9.6c0.2 0 0.3 0.1 0.3 0.3v3c0 0.2-0.1 0.3-0.3 0.3h-4.7c-0.2 0-0.4 0.2-0.4 0.4zm-47.9-0.4c-0.2 0-0.4 0.2-0.4 0.4v1.7c0 0.2 0.2 0.4 0.4 0.4h4.7c0.2 0 0.3 0.1 0.3 0.3v2.9c0 0.2-0.1 0.4-0.3 0.4h-4.7c-0.2 0-0.4 0.1-0.4 0.4v5.5c0 0.2-0.1 0.4-0.3 0.4h-4.3c-0.2 0-0.3-0.2-0.3-0.4v-15.3c0-0.2 0.1-0.3 0.3-0.3h9.7c0.2 0 0.3 0.1 0.3 0.3v3c0 0.2-0.1 0.3-0.3 0.3zm76.7 1.5c0 3.4-2.8 5.3-6.5 5.3h-9.1c-0.1 0-0.2 0.1-0.2 0.2v5c0 0.2-0.1 0.4-0.3 0.4h-4.8c-0.2 0-0.3-0.2-0.3-0.4v-15.3c0-0.2 0.1-0.3 0.3-0.3h14.4c3.7 0 6.5 1.6 6.5 5.1zm-5.4 0.1c0-0.9-0.7-1.4-1.9-1.4h-8.1c-0.2 0-0.4 0.1-0.4 0.3v2.3c0 0.2 0.2 0.4 0.4 0.4h8.2c1.1 0 1.8-0.5 1.8-1.6z"/>
		</g>
	</g>
</svg>