<?xml version="1.0" encoding="UTF-8"?>
<svg id="Layer_1" xmlns="http://www.w3.org/2000/svg" version="1.1" viewBox="0 0 512 512">
  <!-- Generator: Adobe Illustrator 29.6.1, SVG Export Plug-In . SVG Version: 2.1.1 Build 9)  -->
  <defs>
    <style>
      .st0 {
        stroke: #957d61;
      }

      .st0, .st1, .st2, .st3, .st4, .st5 {
        fill: none;
        stroke-width: 2px;
      }

      .st6 {
        fill: #f79087;
      }

      .st1 {
        stroke: #8a91aa;
      }

      .st2 {
        stroke: #626a8b;
      }

      .st3 {
        stroke: #978867;
      }

      .st7 {
        fill: #4ca4a8;
      }

      .st8 {
        fill: #323c6b;
      }

      .st4 {
        stroke: #fac95c;
      }

      .st9 {
        fill: #e1e6e9;
      }

      .st5 {
        stroke: #efdda6;
      }

      .st10 {
        fill: #4b5d58;
      }
    </style>
  </defs>
  <g>
    <path class="st3" d="M178.71,89.7l10.67,3.27c.33.1.68,0,.92-.24,12.65-13.18,34.68-1.86,30.77,16.09-1.7,7.78-8.34,13.64-16.42,14.08-3.77.21-6.96-.46-9.55-2-7.97-4.75-10.95-11.8-8.93-21.17.06-.29-.1-.59-.37-.71-3.63-1.54-7.4-2.55-11.31-3.03" vector-effect="non-scaling-stroke"/>
    <path class="st0" d="M174.49,95.99c-24.9-2.51-46.15,15.3-51.47,39.03-1.07,4.77-1.22,9.52-.46,14.25.2,1.2-.3,2.41-1.28,3.13-19.59,14.27-27.07,39.96-15.05,62.02" vector-effect="non-scaling-stroke"/>
    <path class="st3" d="M106.23,214.42c2.05,4.01,4.74,7.67,8.07,10.96.13.13.35.13.48,0,9.88-9.75,23.25-16.71,37.46-15.39.59.05,1.19-.04,1.74-.28,8.66-3.7,15.07-9.9,19.24-18.6.14-.28.03-.62-.24-.76-17.04-9.17-9.92-35.04,9.62-33.89,13.54.8,20.88,15.81,14.19,27.13-3.34,5.67-8.69,8.63-16.06,8.89-.35.01-.66.22-.8.54-3.45,8.03-8.84,14.47-16.18,19.32-.18.12-.23.36-.11.54.04.07.11.12.18.15,7.91,3.33,14.46,8.48,19.63,15.45,1.09,1.47.79,3.55-.68,4.65,0,0,0,0,0,0l-.13.1c-1.51,1.12-3.64.82-4.77-.68-8.34-11.07-23.26-18.66-36.92-14.84-8.89,2.49-16.61,7.36-23.14,14.59-.71.79-1.53,2.17-2.46,4.15" vector-effect="non-scaling-stroke"/>
    <path class="st0" d="M115.34,236.45c-5.83,13.67-5.25,27.22,1.74,40.64" vector-effect="non-scaling-stroke"/>
    <path class="st3" d="M117.08,277.09c5.45,10.21,13.5,17.69,24.14,22.43.5.22,1.04.35,1.59.38,12.37.62,23.41-2.93,33.1-10.64.29-.24.34-.67.1-.96-.01-.02-.03-.03-.04-.04-4.51-4.71-6.19-11.55-4.25-17.73,4.69-14.94,24.38-17.32,32.61-4.03,3.15,5.1,3.5,12.24.73,17.28-4.63,8.42-12.05,11.47-22.26,9.15-.27-.06-.55,0-.76.19-10.31,9.04-22.38,13.65-36.21,13.84-.22,0-.39.18-.39.39,0,.02,0,.04,0,.07,3.49,21.08,21.73,37.15,41.68,42.75,4.25,1.2,8.07,1.87,11.44,2.02.65.03,3.27.07,7.85.11,4.14.04,6.75-.06,7.82-.3,16.97-3.83,29.15-18.18,29.17-35.76.02-13.79.02-96.38,0-247.75,0-.11-.01-.22-.04-.32l-.89-3.18" vector-effect="non-scaling-stroke"/>
    <path class="st0" d="M242.49,64.99c-1.51-4.27-3.95-7.51-7.33-9.7-11-7.14-26.93-6.04-38.48-.91-14.77,6.57-25.13,19.42-31.23,33.98-.08.18,0,.39.19.47.05.02.1.03.16.03,4.42-.21,8.72.07,12.91.84" vector-effect="non-scaling-stroke"/>
    <path class="st4" d="M242.49,64.99c-3.59-.75-7.4-2.09-10.69-2.49-21.57-2.66-41.92,9.07-53.09,27.2" vector-effect="non-scaling-stroke"/>
    <path class="st4" d="M117.08,277.09c.22-3.32.42-6.6.61-9.85.44-7.45,2.43-14.38,5.97-20.79.19-.35.14-.79-.13-1.08l-8.19-8.92" vector-effect="non-scaling-stroke"/>
    <path class="st4" d="M106.23,214.42c.08-7.27.32-12.07.73-14.41,2.51-14.29,9.49-25.8,20.96-34.53.35-.27.55-.71.51-1.15-2.2-26.57,14.75-48.74,40.09-55.62.33-.08.6-.31.73-.62l5.24-12.1" vector-effect="non-scaling-stroke"/>
    <path class="st3" d="M270.87,62.19c-1.56,2.79-2.34,5.56-2.34,8.31.03,156.41.04,236.45.03,240.12-.04,7.16.42,12.38,1.39,15.65,3.82,12.94,15.43,24.46,29.5,25.82,3.61.35,7.82.38,12.61.11,12.77-.73,24.15-4.99,34.13-12.8" vector-effect="non-scaling-stroke"/>
    <path class="st0" d="M346.19,339.4c9.92-7.39,16.46-16.94,19.62-28.67" vector-effect="non-scaling-stroke"/>
    <path class="st3" d="M365.81,310.73l.67-3.23c.05-.24-.11-.48-.36-.53-.03,0-.05,0-.08,0-13.77-.2-25.78-4.79-36.03-13.78-.27-.23-.62-.34-.97-.3-.44.05-.92.14-1.43.28-18.39,4.94-30.5-18.48-16.28-31,11.19-9.84,28.1-2.34,29.64,11.93.56,5.19-1.14,9.99-5.09,14.4-.19.21-.18.54.04.74,0,0,0,0,0,0,8.67,7.54,22.65,11.47,34.26,10.47.38-.03.75-.15,1.07-.34l8.49-4.98" vector-effect="non-scaling-stroke"/>
    <path class="st0" d="M379.75,294.39c11.54-7.64,18.85-21.11,20.56-34.41,1.22-9.48-1.09-24.29-9.17-30.73" vector-effect="non-scaling-stroke"/>
    <path class="st3" d="M391.14,229.25c-4.14-3.94-8.92-7.13-14.33-9.57-15.83-7.11-32.22-.46-42.7,12.83-1.13,1.42-3.15,1.76-4.68.78l-.1-.06c-1.49-.96-1.92-2.95-.96-4.44.03-.05.06-.09.09-.13,5.27-7.31,11.71-12.02,19.71-15.67.2-.1.28-.34.18-.53-.03-.06-.08-.12-.13-.16-7.29-4.79-12.69-11.24-16.21-19.35-.14-.32-.45-.53-.8-.53-11.4-.06-20.06-9.4-18.29-20.84.76-4.91,3.16-8.81,7.19-11.69,14.1-10.07,32.71,3.24,27.8,19.72-1.35,4.51-4.29,8.1-8.84,10.79-.29.17-.41.54-.26.85,4.17,8.59,10.59,14.76,19.26,18.51.51.22,1.07.31,1.63.25,12.38-1.26,24.26,3.98,33.58,11.85" vector-effect="non-scaling-stroke"/>
    <path class="st0" d="M393.28,221.86l4.03,3.34c.21.17.51.15.69-.05,20.44-21.52,17.32-55.63-7.23-72.72-.96-.68-1.48-1.83-1.33-2.99.36-2.95.66-5.01.47-7.6-2.23-29.68-30.88-53.65-60.98-43.84" vector-effect="non-scaling-stroke"/>
    <path class="st3" d="M328.93,98c-1.1.24-2.02.62-2.76,1.15-.28.19-.41.53-.33.86,1.37,6.01.45,11.17-2.76,15.48-8.68,11.64-27.1,9.31-31.67-4.95-5.94-18.51,16.88-31.5,30.25-17.86.22.23.57.3.87.19l2.82-1.07" vector-effect="non-scaling-stroke"/>
    <path class="st0" d="M325.35,91.8c6.79-2.31,13.75-3.31,20.9-3,.19,0,.36-.14.36-.33,0-.05,0-.1-.02-.15-7.6-18.09-20.92-32.08-40.29-36.84-12.2-2.99-28.47-1.31-35.43,10.71" vector-effect="non-scaling-stroke"/>
    <path class="st4" d="M325.35,91.8c-12.89-19.8-30.09-30.84-54.48-29.61" vector-effect="non-scaling-stroke"/>
    <path class="st4" d="M328.93,98l4.1,10.03c.14.36.46.64.85.74,24.95,6.45,42.75,29.64,39.94,55.67-.04.34.1.68.37.88,15.92,12.41,23.66,29.68,21.09,49.89-.25,1.92-.91,4.14-2,6.65" vector-effect="non-scaling-stroke"/>
    <path class="st4" d="M391.14,229.25c-3.43,6.23-7.62,11.71-12.58,16.45-.14.14-.17.35-.08.51,6.38,11.58,8.03,23.72,4.96,36.42-.8,3.3-2.67,7.72-3.69,11.76" vector-effect="non-scaling-stroke"/>
    <path class="st4" d="M365.81,310.73l-13.83,7.86c-.27.15-.45.42-.5.73-1.11,6.55-2.88,13.25-5.29,20.08" vector-effect="non-scaling-stroke"/>
    <path class="st1" d="M214.58,104.97c0-6.12-4.97-11.09-11.09-11.09-6.12,0-11.09,4.97-11.09,11.09h0c0,6.12,4.97,11.09,11.09,11.09h0c6.12,0,11.09-4.97,11.09-11.09" vector-effect="non-scaling-stroke"/>
    <path class="st1" d="M319.58,104.97c0-6.12-4.97-11.09-11.09-11.09s-11.09,4.97-11.09,11.09,4.97,11.09,11.09,11.09,11.09-4.97,11.09-11.09" vector-effect="non-scaling-stroke"/>
    <path class="st1" d="M192.42,174.41c0-6.12-4.97-11.09-11.09-11.09s-11.09,4.97-11.09,11.09,4.97,11.09,11.09,11.09,11.09-4.97,11.09-11.09" vector-effect="non-scaling-stroke"/>
    <path class="st1" d="M341.76,174.41c0-6.12-4.97-11.09-11.09-11.09-6.12,0-11.09,4.97-11.09,11.09h0c0,6.12,4.97,11.09,11.09,11.09h0c6.12,0,11.09-4.97,11.09-11.09" vector-effect="non-scaling-stroke"/>
    <path class="st1" d="M200.01,275.78c0-6.12-4.97-11.09-11.09-11.09s-11.09,4.97-11.09,11.09,4.97,11.09,11.09,11.09,11.09-4.97,11.09-11.09" vector-effect="non-scaling-stroke"/>
    <path class="st1" d="M334.15,275.78c0-6.12-4.97-11.09-11.09-11.09s-11.09,4.97-11.09,11.09,4.97,11.09,11.09,11.09,11.09-4.97,11.09-11.09" vector-effect="non-scaling-stroke"/>
    <path class="st2" d="M323.49,359.69c0-.15-.12-.27-.27-.27h-134.42c-.15,0-.27.12-.27.27v25.22c0,.15.12.27.27.27h134.42c.15,0,.27-.12.27-.27v-25.22" vector-effect="non-scaling-stroke"/>
    <path class="st2" d="M323.49,392.5c0-.22-.17-.39-.39-.39h-134.18c-.22,0-.39.17-.39.39h0v25.34c0,.22.17.39.39.39h134.18c.22,0,.39-.17.39-.39v-25.34" vector-effect="non-scaling-stroke"/>
    <path class="st2" d="M256.01,451c26.87,0,40.79,0,41.74-.02,14.43-.22,25.12-11.07,25.75-25.36.01-.24-.17-.44-.41-.45-.01,0-.02,0-.03,0h-67.05c-42.53,0-64.88,0-67.06,0-.24,0-.43.18-.44.42,0,0,0,.01,0,.02.64,14.29,11.33,25.14,25.76,25.36.95.01,14.87.02,41.74.02" vector-effect="non-scaling-stroke"/>
    <path class="st2" d="M256.03,484.86c15.32,0,27.39-11.49,28.95-26.56.02-.18-.12-.34-.3-.36,0,0-.01,0-.02,0-1.46,0-11,0-28.63-.01-17.63,0-27.18,0-28.63,0-.18,0-.33.15-.33.33,0,.01,0,.03,0,.04,1.57,15.06,13.63,26.56,28.96,26.56" vector-effect="non-scaling-stroke"/>
    <path class="st5" d="M229.17,185.76c0-2.25-1.83-4.08-4.08-4.08h-.68c-2.25,0-4.08,1.83-4.08,4.08h0v2.94c0,2.25,1.83,4.08,4.08,4.08h.68c2.25,0,4.08-1.83,4.08-4.08h0v-2.94" vector-effect="non-scaling-stroke"/>
    <path class="st5" d="M229.26,202.75c0-2.4-1.96-4.35-4.36-4.34h-.24c-2.4,0-4.35,1.96-4.34,4.36l.08,47.34c0,2.4,1.96,4.35,4.36,4.34h.24c2.4,0,4.35-1.96,4.34-4.36l-.08-47.34" vector-effect="non-scaling-stroke"/>
  </g>
  <rect class="st6" x="139.95" y="19.01" width="6.92" height="39.66" rx=".42" ry=".42" transform="translate(-3.24 62.71) rotate(-24.4)"/>
  <rect class="st6" x="348.71" y="35.39" width="39.66" height="6.92" rx=".39" ry=".39" transform="translate(181.47 358.75) rotate(-65.7)"/>
  <path class="st6" d="M218.65,22.55c8.85.39,17.69,2.62,26.54,6.71,4.41,2.04,1.46,8.21-2.64,6.36-8.34-3.77-16.41-5.83-24.2-6.17-7.79-.33-16.01,1.02-24.64,4.06-4.24,1.49-6.65-4.91-2.07-6.57,9.16-3.31,18.16-4.77,27.01-4.39Z"/>
  <rect class="st6" x="170.13" y="35.38" width="10.26" height="6.86" rx="3.25" ry="3.25" transform="translate(10.29 109.56) rotate(-35.7)"/>
  <path class="st7" d="M256.02,104.65c2.59,0,4.25-.02,4.99-.07.33-.02.59-.29.6-.62.13-3.57.13-13.46,0-29.67-.03-4.77.38-8.41,1.24-10.92,2.15-6.25,6.09-11.16,11.81-14.73,6.94-4.32,17.48-6.13,25.8-5.12,24.76,3,42,18.74,51.85,40.7,1.11,2.46,1.96,4.36,2.56,5.71.13.28.37.49.67.59,25.49,7.76,42.58,30.35,41.21,57.25-.01.32.12.63.37.83,18.09,14.62,25.69,37.39,18.87,59.65-2.46,8.03-7.07,15.56-13.83,22.6-.18.18-.22.44-.12.66,6.17,13.25,7.2,26.26,3.09,39.01-5.15,15.98-15.34,27.62-30.59,34.92-.39.18-.66.55-.72.97-3.45,23.22-20.85,41.24-42.61,48.98-.49.17-.81.64-.81,1.16.03,26.73.02,50.29-.04,70.69,0,1.77-.38,4-1.13,6.68-3.47,12.33-13.18,20.87-25.57,23.45-3.45.72-8.47.57-11.17.58-.29,0-.53.21-.56.5-1.39,12.22-6.97,21.45-16.74,27.7-5.89,3.77-12.29,5.66-19.19,5.66-6.91,0-13.3-1.89-19.19-5.66-9.77-6.25-15.35-15.48-16.74-27.7-.03-.29-.27-.5-.56-.5-2.7-.01-7.72.13-11.17-.59-12.39-2.58-22.1-11.12-25.56-23.45-.75-2.68-1.12-4.91-1.13-6.68-.06-20.4-.07-43.96-.03-70.69,0-.52-.32-.99-.81-1.16-21.76-7.74-39.16-25.76-42.61-48.98-.06-.43-.33-.79-.72-.97-15.25-7.31-25.44-18.95-30.58-34.93-4.11-12.75-3.08-25.76,3.09-39.01.1-.22.06-.48-.12-.66-6.76-7.04-11.37-14.57-13.83-22.6-6.81-22.26.79-45.03,18.88-59.65.25-.2.38-.51.37-.83-1.37-26.9,15.73-49.49,41.22-57.24.3-.1.54-.31.67-.59.6-1.35,1.45-3.25,2.56-5.71,9.85-21.96,27.09-37.7,51.85-40.7,8.32-1,18.86.81,25.8,5.13,5.72,3.57,9.66,8.48,11.81,14.73.86,2.51,1.27,6.15,1.24,10.92-.13,16.21-.13,26.1,0,29.67,0,.33.27.6.6.62.73.05,2.39.07,4.98.07ZM178.71,89.7l10.67,3.27c.33.1.68,0,.92-.24,12.65-13.18,34.68-1.86,30.77,16.09-1.7,7.78-8.34,13.64-16.42,14.08-3.77.21-6.96-.46-9.55-2-7.97-4.75-10.95-11.8-8.93-21.17.06-.29-.1-.59-.37-.71-3.63-1.54-7.4-2.55-11.31-3.03-24.9-2.51-46.15,15.3-51.47,39.03-1.07,4.77-1.22,9.52-.46,14.25.2,1.2-.3,2.41-1.28,3.13-19.59,14.27-27.07,39.96-15.05,62.02,2.05,4.01,4.74,7.67,8.07,10.96.13.13.35.13.48,0,9.88-9.75,23.25-16.71,37.46-15.39.59.05,1.19-.04,1.74-.28,8.66-3.7,15.07-9.9,19.24-18.6.14-.28.03-.62-.24-.76-17.04-9.17-9.92-35.04,9.62-33.89,13.54.8,20.88,15.81,14.19,27.13-3.34,5.67-8.69,8.63-16.06,8.89-.35.01-.66.22-.8.54-3.45,8.03-8.84,14.47-16.18,19.32-.18.12-.23.36-.11.54.04.07.11.12.18.15,7.91,3.33,14.46,8.48,19.63,15.45,1.09,1.47.79,3.55-.68,4.65,0,0,0,0,0,0l-.13.1c-1.51,1.12-3.64.82-4.77-.68-8.34-11.07-23.26-18.66-36.92-14.84-8.89,2.49-16.61,7.36-23.14,14.59-.71.79-1.53,2.17-2.46,4.15-5.83,13.67-5.25,27.22,1.74,40.64,5.45,10.21,13.5,17.69,24.14,22.43.5.22,1.04.35,1.59.38,12.37.62,23.41-2.93,33.1-10.64.29-.24.34-.67.1-.96-.01-.02-.03-.03-.04-.04-4.51-4.71-6.19-11.55-4.25-17.73,4.69-14.94,24.38-17.32,32.61-4.03,3.15,5.1,3.5,12.24.73,17.28-4.63,8.42-12.05,11.47-22.26,9.15-.27-.06-.55,0-.76.19-10.31,9.04-22.38,13.65-36.21,13.84-.22,0-.39.18-.39.39,0,.02,0,.04,0,.07,3.49,21.08,21.73,37.15,41.68,42.75,4.25,1.2,8.07,1.87,11.44,2.02.65.03,3.27.07,7.85.11,4.14.04,6.75-.06,7.82-.3,16.97-3.83,29.15-18.18,29.17-35.76.02-13.79.02-96.38,0-247.75,0-.11-.01-.22-.04-.32l-.89-3.18c-1.51-4.27-3.95-7.51-7.33-9.7-11-7.14-26.93-6.04-38.48-.91-14.77,6.57-25.13,19.42-31.23,33.98-.08.18,0,.39.19.47.05.02.1.03.16.03,4.42-.21,8.72.07,12.91.84ZM270.87,62.19c-1.56,2.79-2.34,5.56-2.34,8.31.03,156.41.04,236.45.03,240.12-.04,7.16.42,12.38,1.39,15.65,3.82,12.94,15.43,24.46,29.5,25.82,3.61.35,7.82.38,12.61.11,12.77-.73,24.15-4.99,34.13-12.8,9.92-7.39,16.46-16.94,19.62-28.67l.67-3.23c.05-.24-.11-.48-.36-.53-.03,0-.05,0-.08,0-13.77-.2-25.78-4.79-36.03-13.78-.27-.23-.62-.34-.97-.3-.44.05-.92.14-1.43.28-18.39,4.94-30.5-18.48-16.28-31,11.19-9.84,28.1-2.34,29.64,11.93.56,5.19-1.14,9.99-5.09,14.4-.19.21-.18.54.04.74,0,0,0,0,0,0,8.67,7.54,22.65,11.47,34.26,10.47.38-.03.75-.15,1.07-.34l8.49-4.98c11.54-7.64,18.85-21.11,20.56-34.41,1.22-9.48-1.09-24.29-9.17-30.73-4.14-3.94-8.92-7.13-14.33-9.57-15.83-7.11-32.22-.46-42.7,12.83-1.13,1.42-3.15,1.76-4.68.78l-.1-.06c-1.49-.96-1.92-2.95-.96-4.44.03-.05.06-.09.09-.13,5.27-7.31,11.71-12.02,19.71-15.67.2-.1.28-.34.18-.53-.03-.06-.08-.12-.13-.16-7.29-4.79-12.69-11.24-16.21-19.35-.14-.32-.45-.53-.8-.53-11.4-.06-20.06-9.4-18.29-20.84.76-4.91,3.16-8.81,7.19-11.69,14.1-10.07,32.71,3.24,27.8,19.72-1.35,4.51-4.29,8.1-8.84,10.79-.29.17-.41.54-.26.85,4.17,8.59,10.59,14.76,19.26,18.51.51.22,1.07.31,1.63.25,12.38-1.26,24.26,3.98,33.58,11.85l4.03,3.34c.21.17.51.15.69-.05,20.44-21.52,17.32-55.63-7.23-72.72-.96-.68-1.48-1.83-1.33-2.99.36-2.95.66-5.01.47-7.6-2.23-29.68-30.88-53.65-60.98-43.84-1.1.24-2.02.62-2.76,1.15-.28.19-.41.53-.33.86,1.37,6.01.45,11.17-2.76,15.48-8.68,11.64-27.1,9.31-31.67-4.95-5.94-18.51,16.88-31.5,30.25-17.86.22.23.57.3.87.19l2.82-1.07c6.79-2.31,13.75-3.31,20.9-3,.19,0,.36-.14.36-.33,0-.05,0-.1-.02-.15-7.6-18.09-20.92-32.08-40.29-36.84-12.2-2.99-28.47-1.31-35.43,10.71ZM214.58,104.97c0-6.12-4.97-11.09-11.09-11.09-6.12,0-11.09,4.97-11.09,11.09h0c0,6.12,4.97,11.09,11.09,11.09h0c6.12,0,11.09-4.97,11.09-11.09ZM319.58,104.97c0-6.12-4.97-11.09-11.09-11.09s-11.09,4.97-11.09,11.09,4.97,11.09,11.09,11.09,11.09-4.97,11.09-11.09ZM261.64,111.93c0-.19-.16-.35-.35-.35h-10.58c-.19,0-.35.16-.35.35h0v196.82c0,.19.16.35.35.35h10.58c.19,0,.35-.16.35-.35h0V111.93ZM192.42,174.41c0-6.12-4.97-11.09-11.09-11.09s-11.09,4.97-11.09,11.09,4.97,11.09,11.09,11.09,11.09-4.97,11.09-11.09ZM341.76,174.41c0-6.12-4.97-11.09-11.09-11.09-6.12,0-11.09,4.97-11.09,11.09h0c0,6.12,4.97,11.09,11.09,11.09h0c6.12,0,11.09-4.97,11.09-11.09ZM200.01,275.78c0-6.12-4.97-11.09-11.09-11.09s-11.09,4.97-11.09,11.09,4.97,11.09,11.09,11.09,11.09-4.97,11.09-11.09ZM334.15,275.78c0-6.12-4.97-11.09-11.09-11.09s-11.09,4.97-11.09,11.09,4.97,11.09,11.09,11.09,11.09-4.97,11.09-11.09ZM256.02,352.4c11.92,0,20.1-.03,24.55-.08.06.02.13-.02.15-.08.02-.06-.02-.13-.08-.15-12.03-8.54-18.38-20.37-19.05-35.48-.02-.28-.24-.5-.51-.51-1.27-.06-2.96-.09-5.07-.09-2.11,0-3.8.04-5.07.09-.27.01-.49.23-.51.51-.66,15.11-7,26.94-19.03,35.49-.06.02-.1.09-.08.15s.09.1.15.08c4.45.05,12.63.07,24.55.07ZM323.49,359.69c0-.15-.12-.27-.27-.27h-134.42c-.15,0-.27.12-.27.27v25.22c0,.15.12.27.27.27h134.42c.15,0,.27-.12.27-.27v-25.22ZM323.49,392.5c0-.22-.17-.39-.39-.39h-134.18c-.22,0-.39.17-.39.39h0v25.34c0,.22.17.39.39.39h134.18c.22,0,.39-.17.39-.39v-25.34ZM256.01,451c26.87,0,40.79,0,41.74-.02,14.43-.22,25.12-11.07,25.75-25.36.01-.24-.17-.44-.41-.45-.01,0-.02,0-.03,0h-67.05c-42.53,0-64.88,0-67.06,0-.24,0-.43.18-.44.42,0,0,0,.01,0,.02.64,14.29,11.33,25.14,25.76,25.36.95.01,14.87.02,41.74.02ZM256.03,484.86c15.32,0,27.39-11.49,28.95-26.56.02-.18-.12-.34-.3-.36,0,0-.01,0-.02,0-1.46,0-11,0-28.63-.01-17.63,0-27.18,0-28.63,0-.18,0-.33.15-.33.33,0,.01,0,.03,0,.04,1.57,15.06,13.63,26.56,28.96,26.56Z"/>
  <path class="st10" d="M242.49,64.99c-3.59-.75-7.4-2.09-10.69-2.49-21.57-2.66-41.92,9.07-53.09,27.2-4.19-.77-8.49-1.05-12.91-.84-.2.01-.37-.14-.38-.34,0-.05,0-.11.03-.16,6.1-14.56,16.46-27.41,31.23-33.98,11.55-5.13,27.48-6.23,38.48.91,3.38,2.19,5.82,5.43,7.33,9.7Z"/>
  <path class="st10" d="M325.35,91.8c-12.89-19.8-30.09-30.84-54.48-29.61,6.96-12.02,23.23-13.7,35.43-10.71,19.37,4.76,32.69,18.75,40.29,36.84.07.18-.02.38-.19.46-.05.02-.1.03-.15.02-7.15-.31-14.11.69-20.9,3Z"/>
  <rect class="st6" x="93.73" y="54.71" width="6.92" height="39.66" rx=".41" ry=".41" transform="translate(-21.9 103.16) rotate(-51)"/>
  <rect class="st8" x="394.79" y="71.03" width="39.66" height="6.92" rx=".4" ry=".4" transform="translate(45.52 277.53) rotate(-39)"/>
  <path class="st6" d="M242.49,64.99l.89,3.18c.03.1.04.21.04.32.01,151.37.01,233.96,0,247.75-.02,17.58-12.2,31.93-29.17,35.76-1.07.24-3.68.34-7.82.3-4.58-.04-7.2-.08-7.85-.11-3.37-.15-7.19-.82-11.44-2.02-19.95-5.6-38.19-21.67-41.68-42.75-.04-.21.1-.42.31-.45.02,0,.04,0,.07,0,13.83-.19,25.9-4.8,36.21-13.84.21-.18.49-.25.76-.19,10.21,2.32,17.63-.73,22.26-9.15,2.77-5.04,2.42-12.18-.73-17.28-8.23-13.29-27.92-10.91-32.61,4.03-1.94,6.18-.26,13.02,4.25,17.73.26.27.25.7-.02.96-.01.01-.03.03-.04.04-9.69,7.71-20.73,11.26-33.1,10.64-.55-.03-1.09-.16-1.59-.38-10.64-4.74-18.69-12.22-24.14-22.43.22-3.32.42-6.6.61-9.85.44-7.45,2.43-14.38,5.97-20.79.19-.35.14-.79-.13-1.08l-8.19-8.92c.93-1.98,1.75-3.36,2.46-4.15,6.53-7.23,14.25-12.1,23.14-14.59,13.66-3.82,28.58,3.77,36.92,14.84,1.13,1.5,3.26,1.8,4.77.68l.13-.1c1.47-1.09,1.79-3.17.69-4.64,0,0,0,0,0,0-5.17-6.97-11.72-12.12-19.63-15.45-.2-.08-.3-.31-.22-.51.03-.08.08-.14.15-.18,7.34-4.85,12.73-11.29,16.18-19.32.14-.32.45-.53.8-.54,7.37-.26,12.72-3.22,16.06-8.89,6.69-11.32-.65-26.33-14.19-27.13-19.54-1.15-26.66,24.72-9.62,33.89.27.14.38.48.24.76-4.17,8.7-10.58,14.9-19.24,18.6-.55.24-1.15.33-1.74.28-14.21-1.32-27.58,5.64-37.46,15.39-.13.13-.35.13-.48,0-3.33-3.29-6.02-6.95-8.07-10.96.08-7.27.32-12.07.73-14.41,2.51-14.29,9.49-25.8,20.96-34.53.35-.27.55-.71.51-1.15-2.2-26.57,14.75-48.74,40.09-55.62.33-.08.6-.31.73-.62l5.24-12.1c3.91.48,7.68,1.49,11.31,3.03.27.12.43.42.37.71-2.02,9.37.96,16.42,8.93,21.17,2.59,1.54,5.78,2.21,9.55,2,8.08-.44,14.72-6.3,16.42-14.08,3.91-17.95-18.12-29.27-30.77-16.09-.24.25-.59.34-.92.24l-10.67-3.27c11.17-18.13,31.52-29.86,53.09-27.2,3.29.4,7.1,1.74,10.69,2.49ZM229.17,185.76c0-2.25-1.83-4.08-4.08-4.08h-.68c-2.25,0-4.08,1.83-4.08,4.08h0v2.94c0,2.25,1.83,4.08,4.08,4.08h.68c2.25,0,4.08-1.83,4.08-4.08h0v-2.94ZM229.26,202.75c0-2.4-1.96-4.35-4.36-4.34h-.24c-2.4,0-4.35,1.96-4.34,4.36l.08,47.34c0,2.4,1.96,4.35,4.36,4.34h.24c2.4,0,4.35-1.96,4.34-4.36l-.08-47.34Z"/>
  <path class="st6" d="M325.35,91.8l-2.82,1.07c-.3.11-.65.04-.87-.19-13.37-13.64-36.19-.65-30.25,17.86,4.57,14.26,22.99,16.59,31.67,4.95,3.21-4.31,4.13-9.47,2.76-15.48-.08-.33.05-.67.33-.86.74-.53,1.66-.91,2.76-1.15l4.1,10.03c.14.36.46.64.85.74,24.95,6.45,42.75,29.64,39.94,55.67-.04.34.1.68.37.88,15.92,12.41,23.66,29.68,21.09,49.89-.25,1.92-.91,4.14-2,6.65-9.32-7.87-21.2-13.11-33.58-11.85-.56.06-1.12-.03-1.63-.25-8.67-3.75-15.09-9.92-19.26-18.51-.15-.31-.03-.68.26-.85,4.55-2.69,7.49-6.28,8.84-10.79,4.91-16.48-13.7-29.79-27.8-19.72-4.03,2.88-6.43,6.78-7.19,11.69-1.77,11.44,6.89,20.78,18.29,20.84.35,0,.66.21.8.53,3.52,8.11,8.92,14.56,16.21,19.35.18.12.23.37.11.56-.04.06-.09.1-.16.13-8,3.65-14.44,8.36-19.71,15.67-1.03,1.44-.7,3.45.74,4.48.04.03.09.06.13.09l.1.06c1.53.98,3.55.64,4.68-.78,10.48-13.29,26.87-19.94,42.7-12.83,5.41,2.44,10.19,5.63,14.33,9.57-3.43,6.23-7.62,11.71-12.58,16.45-.14.14-.17.35-.08.51,6.38,11.58,8.03,23.72,4.96,36.42-.8,3.3-2.67,7.72-3.69,11.76l-8.49,4.98c-.32.19-.69.31-1.07.34-11.61,1-25.59-2.93-34.26-10.47-.22-.19-.25-.52-.06-.74,0,0,0,0,0,0,3.95-4.41,5.65-9.21,5.09-14.4-1.54-14.27-18.45-21.77-29.64-11.93-14.22,12.52-2.11,35.94,16.28,31,.51-.14.99-.23,1.43-.28.35-.04.7.07.97.3,10.25,8.99,22.26,13.58,36.03,13.78.25,0,.45.21.45.46,0,.03,0,.05,0,.08l-.67,3.23-13.83,7.86c-.27.15-.45.42-.5.73-1.11,6.55-2.88,13.25-5.29,20.08-9.98,7.81-21.36,12.07-34.13,12.8-4.79.27-9,.24-12.61-.11-14.07-1.36-25.68-12.88-29.5-25.82-.97-3.27-1.43-8.49-1.39-15.65.01-3.67,0-83.71-.03-240.12,0-2.75.78-5.52,2.34-8.31,24.39-1.23,41.59,9.81,54.48,29.61Z"/>
  <circle class="st9" cx="203.49" cy="104.97" r="11.09"/>
  <circle class="st9" cx="308.49" cy="104.97" r="11.09"/>
  <path class="st10" d="M174.49,95.99l-5.24,12.1c-.13.31-.4.54-.73.62-25.34,6.88-42.29,29.05-40.09,55.62.04.44-.16.88-.51,1.15-11.47,8.73-18.45,20.24-20.96,34.53-.41,2.34-.65,7.14-.73,14.41-12.02-22.06-4.54-47.75,15.05-62.02.98-.72,1.48-1.93,1.28-3.13-.76-4.73-.61-9.48.46-14.25,5.32-23.73,26.57-41.54,51.47-39.03Z"/>
  <path class="st10" d="M393.28,221.86c1.09-2.51,1.75-4.73,2-6.65,2.57-20.21-5.17-37.48-21.09-49.89-.27-.21-.41-.54-.37-.88,2.81-26.03-14.99-49.22-39.94-55.67-.39-.1-.71-.38-.85-.74l-4.1-10.03c30.1-9.81,58.75,14.16,60.98,43.84.19,2.59-.11,4.65-.47,7.6-.15,1.16.37,2.31,1.33,2.99,24.55,17.09,27.67,51.2,7.23,72.72-.18.2-.48.22-.69.05l-4.03-3.34Z"/>
  <rect class="st6" x="68.45" y="107.27" width="6.92" height="39.66" rx=".41" ry=".41" transform="translate(-67.59 170.28) rotate(-77.7)"/>
  <rect class="st8" x="420.22" y="123.72" width="39.66" height="6.92" rx=".39" ry=".39" transform="translate(-16.99 96.66) rotate(-12.3)"/>
  <circle class="st9" cx="181.33" cy="174.41" r="11.09"/>
  <circle class="st9" cx="330.67" cy="174.41" r="11.09"/>
  <rect class="st9" x="220.33" y="181.68" width="8.84" height="11.1" rx="4.08" ry="4.08"/>
  <rect class="st9" x="220.36" y="198.41" width="8.94" height="56.04" rx="4.35" ry="4.35" transform="translate(-.39 .39) rotate(-.1)"/>
  <path class="st10" d="M391.14,229.25c8.08,6.44,10.39,21.25,9.17,30.73-1.71,13.3-9.02,26.77-20.56,34.41,1.02-4.04,2.89-8.46,3.69-11.76,3.07-12.7,1.42-24.84-4.96-36.42-.09-.16-.06-.37.08-.51,4.96-4.74,9.15-10.22,12.58-16.45Z"/>
  <path class="st10" d="M115.34,236.45l8.19,8.92c.27.29.32.73.13,1.08-3.54,6.41-5.53,13.34-5.97,20.79-.19,3.25-.39,6.53-.61,9.85-6.99-13.42-7.57-26.97-1.74-40.64Z"/>
  <circle class="st9" cx="188.92" cy="275.78" r="11.09"/>
  <circle class="st9" cx="323.06" cy="275.78" r="11.09"/>
  <path class="st10" d="M365.81,310.73c-3.16,11.73-9.7,21.28-19.62,28.67,2.41-6.83,4.18-13.53,5.29-20.08.05-.31.23-.58.5-.73l13.83-7.86Z"/>
  <rect class="st10" x="188.53" y="359.42" width="134.96" height="25.76" rx=".27" ry=".27"/>
  <rect class="st10" x="188.53" y="392.11" width="134.96" height="26.12" rx=".39" ry=".39"/>
  <rect class="st6" x="344.27" y="404.83" width="6.84" height="9.76" rx="3.18" ry="3.18"/>
  <path class="st6" d="M338.1,460.06c-7.89,9.15-18.01,15.03-30.36,17.62-3.44.73-5.76-2.9-3.73-5.48.41-.51,1.5-.99,3.27-1.42,10.51-2.55,19.04-7.63,25.59-15.23,6.55-7.6,10.32-16.79,11.29-27.56.16-1.81.47-2.96.92-3.44,2.25-2.38,6.18-.62,5.97,2.88-.75,12.6-5.06,23.48-12.95,32.63Z"/>
  <path class="st10" d="M256.01,425.17h67.05c.24,0,.43.18.44.42,0,.01,0,.02,0,.03-.63,14.29-11.32,25.14-25.75,25.36-.95.01-14.87.02-41.74.02s-40.79,0-41.74-.02c-14.43-.22-25.12-11.07-25.76-25.36,0-.24.18-.43.42-.44,0,0,.01,0,.02,0,2.18,0,24.53,0,67.06,0Z"/>
  <path class="st10" d="M256.03,457.93c17.63,0,27.17,0,28.63.01.18,0,.33.16.32.34,0,0,0,.01,0,.02-1.56,15.07-13.63,26.56-28.95,26.56s-27.39-11.5-28.96-26.56c-.02-.18.11-.35.29-.37.01,0,.03,0,.04,0,1.45,0,11,0,28.63,0Z"/>
</svg>